<?xml version="1.0" encoding="UTF-8" standalone="no"?><!-- Generator: Gravit.io --><svg xmlns="http://www.w3.org/2000/svg" xmlns:xlink="http://www.w3.org/1999/xlink" style="isolation:isolate" viewBox="80.595 46.01 205.765 176.644" width="205.765pt" height="176.644pt"><defs><clipPath id="_clipPath_ElCMhaZEl2M0mN7qxeduTeEheLS1h1As"><rect x="80.595" y="46.01" width="205.765" height="176.644"/></clipPath></defs><g clip-path="url(#_clipPath_ElCMhaZEl2M0mN7qxeduTeEheLS1h1As)"><g><path d=" M 160.433 220.654 L 160.433 96.691 L 123.402 112.293 L 120.362 133.949 L 102.918 139.89 L 92.258 171.341 L 104.469 185.223 L 143.221 174.251 L 143.221 122.889 L 135.751 125.254 L 134.617 138.553 L 139.089 143.397 L 139.089 167.243 L 104.106 173.11 L 108.699 150.15 L 122.505 146.274 L 125.095 154.186 L 116.103 156.407 L 114.845 162.701 L 130.906 159.902 L 130.746 147.155 L 126.31 141.565 L 128.801 118.931 L 151.761 109.838 L 151.761 181.855 L 100.393 195.046 L 82.834 172.945 L 95.774 134.126 L 112.413 127.957 L 115.807 106.835 L 169.729 83.842 L 169.729 220.654 L 160.433 220.654 Z " fill="rgb(115,191,68)"/></g><g><path d=" M 171.728 80.815 L 166.159 83.19 L 116.038 104.563 L 114.007 105.428 L 113.658 107.607 L 110.623 126.487 L 95.978 131.916 L 94.18 132.583 L 93.574 134.402 L 81.28 171.284 L 80.595 173.34 L 81.943 175.038 L 98.019 195.275 L 99.634 197.307 L 102.147 196.662 L 150.755 184.178 L 153.76 183.407 L 153.76 180.304 L 153.76 112.782 L 153.76 106.895 L 148.287 109.062 L 129.184 116.628 L 126.944 117.515 L 126.682 119.91 L 124.411 140.528 L 124.231 142.163 L 125.254 143.452 L 128.755 147.864 L 128.884 158.223 L 117.379 160.228 L 117.815 158.044 L 123.483 156.644 L 127.666 155.612 L 126.326 151.516 L 125.002 147.474 L 123.81 143.831 L 120.119 144.867 L 109.338 147.892 L 106.978 148.555 L 106.496 150.959 L 102.714 169.874 L 101.576 175.562 L 107.298 174.603 L 137.75 169.496 L 141.088 168.936 L 141.088 165.551 L 141.088 144.178 L 141.088 142.614 L 140.027 141.466 L 136.684 137.843 L 137.631 126.756 L 141.22 125.62 L 141.22 172.74 L 105.136 182.955 L 94.523 170.887 L 104.496 141.466 L 119.842 136.238 L 122.171 135.444 L 122.514 133.007 L 125.224 113.695 L 158.432 99.704 L 158.432 218.654 L 158.432 222.654 L 162.432 222.654 L 167.728 222.654 L 171.728 222.654 L 171.728 218.654 L 171.728 86.87 L 171.728 80.815 Z  M 167.728 86.87 L 167.728 218.654 L 162.432 218.654 L 162.432 93.678 L 121.579 110.89 L 118.552 132.451 L 101.34 138.315 L 89.992 171.792 L 103.799 187.491 L 145.22 175.764 L 145.22 120.158 L 133.872 123.751 L 132.548 139.26 L 137.088 144.178 L 137.088 165.551 L 106.636 170.658 L 110.419 151.744 L 121.2 148.718 L 122.524 152.762 L 114.391 154.77 L 112.311 165.172 L 132.927 161.579 L 132.738 146.448 L 128.387 140.966 L 130.658 120.347 L 149.76 112.782 L 149.76 180.304 L 101.151 192.787 L 85.075 172.55 L 97.368 135.667 L 114.202 129.426 L 117.607 108.242 L 167.728 86.87 Z " fill="rgb(0,0,0)"/></g><g><path d=" M 189.75 195.922 L 189.75 187.571 L 208.507 187.571 L 210.614 182.79 L 191.36 175.927 L 199.588 160.364 L 186.534 160.364 L 186.534 124.231 L 215.703 135.586 L 218.739 129.147 L 186.204 115.684 L 193.48 84.095 L 191.359 82.504 L 192.002 75.412 L 204.296 75.412 L 196.159 110.098 L 230.6 125.022 L 219.582 147.284 L 195.83 137.856 L 195.83 151.635 L 214.163 151.635 L 203.858 171.251 L 222.211 177.806 L 214.643 195.922 L 189.75 195.922 Z " fill="rgb(115,191,68)"/></g><g><path d=" M 206.821 73.412 L 201.774 73.412 L 193.83 73.412 L 190.177 73.412 L 189.846 77.049 L 189.467 81.211 L 189.266 83.433 L 191.051 84.773 L 191.239 84.913 L 184.635 113.585 L 183.875 116.885 L 187.005 118.18 L 216.035 130.192 L 214.69 133.044 L 189.985 123.428 L 184.534 121.307 L 184.534 127.156 L 184.534 158.364 L 184.534 162.364 L 188.534 162.364 L 196.269 162.364 L 190.671 172.949 L 188.511 177.035 L 192.865 178.587 L 207.917 183.951 L 207.203 185.572 L 191.749 185.572 L 187.749 185.572 L 187.749 189.572 L 187.749 193.921 L 187.749 197.921 L 191.749 197.921 L 213.311 197.921 L 215.975 197.921 L 217.002 195.464 L 223.243 180.521 L 224.869 176.631 L 220.898 175.212 L 206.701 170.141 L 214.394 155.495 L 217.471 149.635 L 210.853 149.635 L 197.83 149.635 L 197.83 140.801 L 217.131 148.463 L 220.557 149.823 L 222.191 146.52 L 231.459 127.795 L 233.326 124.024 L 229.465 122.351 L 198.487 108.927 L 205.667 78.325 L 206.821 73.412 Z  M 201.774 77.412 L 193.83 111.268 L 227.874 126.021 L 218.607 144.745 L 193.83 134.911 L 193.83 153.635 L 210.853 153.635 L 201.017 172.36 L 219.553 178.98 L 213.311 193.921 L 191.749 193.921 L 191.749 189.572 L 209.811 189.572 L 213.311 181.628 L 194.207 174.819 L 202.909 158.364 L 188.534 158.364 L 188.534 127.156 L 216.715 138.125 L 221.443 128.101 L 188.534 114.483 L 195.721 83.275 L 193.451 81.573 L 193.83 77.412 L 201.774 77.412 Z " fill="rgb(0,0,0)"/></g><g><path d=" M 173.862 220.654 L 173.862 48.566 L 220.858 60.21 L 215.262 96.974 L 268.18 96.974 L 284.164 156.367 L 259.136 187.451 L 217.124 170.153 L 238.548 130.038 L 261.978 147.281 L 252.09 162.473 L 244.744 157.575 L 250.302 149.526 L 241.574 142.843 L 229.167 165.883 L 256.392 177.311 L 275.032 154.318 L 261.355 106.27 L 204.723 106.27 L 211.227 65.889 L 182.77 59.311 L 182.77 220.654 L 173.862 220.654 Z " fill="rgb(115,191,68)"/></g><g><path d=" M 171.861 46.01 L 171.861 51.122 L 171.861 218.654 L 171.861 222.654 L 175.861 222.654 L 180.769 222.654 L 184.769 222.654 L 184.769 218.654 L 184.769 61.826 L 208.956 67.416 L 203.12 103.634 L 202.373 108.27 L 207.069 108.27 L 259.845 108.27 L 272.824 153.866 L 255.784 174.887 L 231.972 164.892 L 242.221 145.858 L 247.575 149.956 L 244.253 154.767 L 241.943 158.112 L 245.327 160.368 L 249.299 163.016 L 252.664 165.259 L 254.869 161.87 L 262.624 149.954 L 264.684 146.788 L 261.643 144.55 L 241.593 129.798 L 237.872 127.058 L 235.695 131.135 L 216.403 167.26 L 214.32 171.16 L 218.408 172.843 L 256.992 188.731 L 259.756 189.87 L 261.631 187.54 L 285.084 158.414 L 286.36 156.83 L 285.831 154.866 L 270.511 97.935 L 269.713 94.974 L 266.648 94.974 L 217.588 94.974 L 222.561 62.316 L 223.111 58.708 L 219.569 57.831 L 176.824 47.239 L 171.861 46.01 Z  M 175.861 51.122 L 218.607 61.714 L 212.932 98.974 L 266.648 98.974 L 281.968 155.904 L 258.515 185.032 L 219.931 169.144 L 239.223 133.019 L 259.272 147.772 L 251.517 159.687 L 247.545 157.039 L 253.031 149.096 L 240.925 139.828 L 226.361 166.875 L 257.001 179.736 L 277.24 154.77 L 262.865 104.27 L 207.069 104.27 L 213.5 64.362 L 180.769 56.796 L 180.769 218.654 L 175.861 218.654 L 175.861 51.122 Z " fill="rgb(0,0,0)"/></g><g><path d=" M 161.068 220.017 L 161.068 95.735 L 122.822 111.847 L 119.784 133.475 L 102.414 139.391 L 91.535 171.483 L 104.258 185.944 L 143.856 174.736 L 143.856 122.02 L 135.152 124.776 L 133.959 138.775 L 138.454 143.644 L 138.454 166.703 L 104.91 172.332 L 109.25 150.656 L 122.091 147.055 L 124.275 153.733 L 115.558 155.885 L 114.035 163.488 L 131.547 160.433 L 131.371 146.465 L 126.968 141.376 L 129.395 119.383 L 151.124 110.772 L 151.124 181.361 L 100.631 194.327 L 83.546 172.817 L 96.282 134.615 L 112.983 128.42 L 116.378 107.281 L 169.094 84.804 L 169.094 220.017 L 161.068 220.017 Z " fill="rgb(115,191,68)"/></g><g><path d=" M 190.383 195.286 L 190.383 188.207 L 208.925 188.207 L 211.473 182.418 L 192.267 175.576 L 200.644 159.728 L 187.169 159.728 L 187.169 125.163 L 216.025 136.398 L 219.6 128.816 L 186.944 115.302 L 194.195 83.835 L 192.025 82.206 L 192.584 76.047 L 203.497 76.047 L 195.419 110.472 L 229.735 125.339 L 219.269 146.474 L 195.195 136.916 L 195.195 152.271 L 213.107 152.271 L 202.956 171.602 L 221.365 178.179 L 214.216 195.286 L 190.383 195.286 Z " fill="rgb(115,191,68)"/></g><g><path d=" M 174.495 220.017 L 174.495 49.379 L 220.142 60.688 L 214.515 97.609 L 267.69 97.609 L 283.467 156.22 L 258.938 186.68 L 218.019 169.832 L 238.763 130.992 L 261.118 147.439 L 251.908 161.587 L 245.635 157.405 L 251.172 149.392 L 241.364 141.883 L 228.272 166.2 L 256.587 178.087 L 275.732 154.464 L 261.835 105.635 L 205.468 105.635 L 211.95 65.403 L 182.132 58.509 L 182.132 220.017 L 174.495 220.017 Z " fill="rgb(115,191,68)"/></g></g></svg>