<?xml version="1.0" encoding="UTF-8" standalone="no"?><!-- Generator: Gravit.io --><svg xmlns="http://www.w3.org/2000/svg" xmlns:xlink="http://www.w3.org/1999/xlink" style="isolation:isolate" viewBox="61.619 547.569 246.153 73.448" width="246.153pt" height="73.448pt"><defs><clipPath id="_clipPath_cvKV0P9xR1Vfk6wBr2SSRj57rkBsQsw2"><rect x="61.619" y="547.569" width="246.153" height="73.448"/></clipPath></defs><g clip-path="url(#_clipPath_cvKV0P9xR1Vfk6wBr2SSRj57rkBsQsw2)"><g><path d=" M 103.161 619.017 L 65 549.569 L 175.422 549.569 L 164.242 598.913 L 112.696 598.913 L 103.238 568.237 L 144.317 566.221 L 144.317 577.371 L 118.681 578.685 L 120.669 587.096 L 154.808 587.096 L 160.785 561.833 L 84.913 561.833 L 109.781 607.869 L 251.364 607.869 L 282.226 561.163 L 199.933 561.163 L 191.346 581.511 L 236.198 581.511 L 239.793 577.917 L 206.658 577.917 L 206.658 566.323 L 269.741 566.323 L 239.61 594.892 L 174.224 594.892 L 192.109 549.569 L 304.006 549.569 L 257.077 619.017 L 103.161 619.017 Z " fill="rgb(138,191,231)"/></g><g><path d=" M 307.772 547.569 L 300.241 547.569 L 193.469 547.569 L 190.748 547.569 L 189.749 550.101 L 173.443 591.425 L 171.285 596.893 L 177.164 596.893 L 238.815 596.893 L 240.409 596.893 L 241.567 595.796 L 267.477 571.225 L 274.756 564.323 L 264.725 564.323 L 208.659 564.323 L 204.659 564.323 L 204.659 568.323 L 204.659 575.917 L 204.659 579.512 L 194.361 579.512 L 201.26 563.164 L 278.508 563.164 L 250.288 605.869 L 110.973 605.869 L 88.267 563.835 L 158.257 563.835 L 153.225 585.096 L 122.252 585.096 L 121.179 580.56 L 142.523 579.465 L 146.317 579.271 L 146.317 575.471 L 146.317 568.323 L 146.317 564.121 L 142.121 564.327 L 105.712 566.113 L 100.568 566.367 L 102.085 571.288 L 110.351 598.092 L 111.22 600.913 L 114.172 600.913 L 162.644 600.913 L 165.839 600.913 L 166.545 597.797 L 176.82 552.453 L 177.927 547.569 L 172.92 547.569 L 68.381 547.569 L 61.619 547.569 L 64.876 553.496 L 100.839 618.944 L 101.979 621.017 L 104.344 621.017 L 256.013 621.017 L 258.139 621.017 L 259.328 619.257 L 303.556 553.809 L 307.772 547.569 Z  M 300.241 551.569 L 256.013 617.017 L 104.344 617.017 L 68.381 551.569 L 172.92 551.569 L 162.644 596.913 L 114.172 596.913 L 105.908 570.109 L 142.317 568.323 L 142.317 575.471 L 116.183 576.811 L 119.087 589.096 L 156.389 589.096 L 163.315 559.835 L 81.56 559.835 L 108.588 609.869 L 252.44 609.869 L 285.945 559.164 L 198.607 559.164 L 188.332 583.512 L 237.027 583.512 L 244.621 575.917 L 208.659 575.917 L 208.659 568.323 L 264.725 568.323 L 238.815 592.893 L 177.164 592.893 L 193.469 551.569 L 300.241 551.569 Z " fill="rgb(0,0,0)"/></g><g><path d=" M 103.537 618.381 L 66.079 550.204 L 174.628 550.204 L 163.733 598.276 L 113.165 598.276 L 104.088 568.835 L 143.681 566.893 L 143.681 576.763 L 117.888 578.088 L 120.164 587.729 L 155.312 587.729 L 161.593 561.196 L 83.847 561.196 L 109.401 608.503 L 251.703 608.503 L 283.412 560.528 L 199.509 560.528 L 190.388 582.147 L 236.463 582.147 L 241.331 577.283 L 207.293 577.283 L 207.293 566.959 L 268.145 566.959 L 239.355 594.257 L 175.161 594.257 L 192.541 550.204 L 302.808 550.204 L 256.735 618.381 L 103.537 618.381 Z " fill="rgb(138,191,231)"/></g></g></svg>