<?xml version="1.0" encoding="UTF-8" standalone="no"?><!-- Generator: Gravit.io --><svg xmlns="http://www.w3.org/2000/svg" xmlns:xlink="http://www.w3.org/1999/xlink" style="isolation:isolate" viewBox="77.274 277.056 204.084 178.492" width="204.084pt" height="178.492pt"><defs><clipPath id="_clipPath_mHC228KKkPgFDykr3Lr86u2OCZztSlrj"><rect x="77.274" y="277.056" width="204.084" height="178.492"/></clipPath></defs><g clip-path="url(#_clipPath_mHC228KKkPgFDykr3Lr86u2OCZztSlrj)"><g><path d=" M 80.102 452.713 L 141.198 279.785 L 228.395 319.638 L 239.079 388.399 L 184.278 377.158 L 184.278 345.47 L 163.075 338.775 L 159.067 352.406 L 168.153 354.769 L 169.977 349.037 L 180.666 352.121 L 178.406 369.091 L 144.478 360.683 L 155.778 323.597 L 194.995 337.422 L 194.995 367.459 L 224.726 373.99 L 218.294 327.541 L 147.158 295.07 L 97.602 441.737 L 140.479 441.737 L 140.479 452.713 L 80.102 452.713 Z " fill="rgb(175,154,110)"/></g><g><path d=" M 161.568 350.99 L 164.418 341.297 L 182.278 346.936 L 182.278 350.504 L 179.565 349.721 L 172.401 347.654 L 168.661 346.574 L 167.481 350.285 L 166.821 352.357 L 161.568 350.99 Z  M 140.04 277.056 L 138.584 281.18 L 79.158 449.38 L 77.274 454.712 L 82.929 454.712 L 138.48 454.712 L 142.48 454.712 L 142.48 450.712 L 142.48 443.736 L 142.48 439.736 L 138.48 439.736 L 100.388 439.736 L 148.342 297.809 L 216.464 328.902 L 222.35 371.421 L 196.996 365.85 L 196.996 338.837 L 196.996 336.006 L 194.325 335.065 L 158.412 322.405 L 154.473 321.016 L 153.256 325.012 L 143.18 358.082 L 141.95 362.117 L 146.044 363.132 L 175.756 370.494 L 180.093 371.569 L 180.684 367.14 L 182.278 355.166 L 182.278 375.526 L 182.278 378.789 L 185.474 379.444 L 235.857 389.78 L 241.497 390.936 L 240.613 385.246 L 230.537 320.396 L 230.206 318.266 L 228.246 317.372 L 144.017 278.874 L 140.04 277.056 Z  M 142.354 282.512 L 226.584 321.009 L 236.661 385.861 L 186.278 375.526 L 186.278 344.005 L 161.733 336.253 L 156.565 353.822 L 169.484 357.181 L 171.293 351.497 L 178.456 353.565 L 176.718 366.612 L 147.005 359.249 L 157.082 326.177 L 192.996 338.837 L 192.996 369.066 L 227.101 376.56 L 220.125 326.177 L 145.972 292.33 L 94.814 443.736 L 138.48 443.736 L 138.48 450.712 L 82.929 450.712 L 142.354 282.512 Z " fill="rgb(0,0,0)"/></g><g><path d=" M 144.327 450.116 L 161.795 378.882 L 258.828 397.811 L 278.516 452.712 L 161.559 452.712 L 173.918 397.66 L 230.134 410.888 L 230.134 436.176 L 185.794 436.176 L 188.194 418.688 L 199.323 420.542 L 200.303 425.2 L 218.899 425.2 L 218.899 420.02 L 182.906 412.022 L 176.603 441.736 L 261.79 441.736 L 250.635 408.271 L 170.99 392.84 L 156.758 453.131 L 144.327 450.116 Z " fill="rgb(175,154,110)"/></g><g><path d=" M 172.471 395.267 L 172.494 395.169 L 249.107 410.013 L 259.015 439.736 L 179.073 439.736 L 184.443 414.412 L 216.899 421.624 L 216.899 423.2 L 201.926 423.2 L 201.561 421.467 L 200.998 418.795 L 198.303 418.345 L 190.553 417.053 L 186.493 416.377 L 185.933 420.456 L 184.123 433.632 L 183.501 438.176 L 188.086 438.176 L 228.134 438.176 L 232.134 438.176 L 232.134 434.176 L 232.134 412.473 L 232.134 409.305 L 229.05 408.58 L 176.342 396.177 L 172.471 395.267 Z  M 160.306 376.555 L 159.398 380.257 L 142.862 447.692 L 141.907 451.588 L 145.805 452.532 L 154.331 454.6 L 158.242 455.548 L 159.166 451.631 L 171.126 400.964 L 160.155 449.836 L 159.061 454.712 L 164.058 454.712 L 275.674 454.712 L 281.358 454.712 L 279.439 449.361 L 261.095 398.204 L 260.327 396.064 L 258.095 395.628 L 164.049 377.284 L 160.306 376.555 Z  M 163.283 381.211 L 257.33 399.555 L 275.674 450.712 L 164.058 450.712 L 175.426 400.071 L 228.134 412.473 L 228.134 434.176 L 188.086 434.176 L 189.895 420.999 L 197.646 422.291 L 198.679 427.2 L 220.899 427.2 L 220.899 418.416 L 181.369 409.631 L 174.134 443.736 L 264.565 443.736 L 252.163 406.531 L 169.483 390.512 L 155.274 450.712 L 146.747 448.645 L 163.283 381.211 Z " fill="rgb(0,0,0)"/></g><g><path d=" M 81.002 452.077 L 141.568 280.654 L 227.816 320.077 L 238.306 387.589 L 184.912 376.641 L 184.912 345.002 L 162.65 337.972 L 158.27 352.86 L 168.576 355.537 L 170.393 349.818 L 179.96 352.578 L 177.869 368.302 L 145.284 360.225 L 156.192 324.417 L 194.36 337.874 L 194.36 367.969 L 225.482 374.809 L 218.88 327.108 L 146.78 294.196 L 96.714 442.37 L 139.842 442.37 L 139.842 452.077 L 81.002 452.077 Z " fill="rgb(230,207,164)"/></g><g><path d=" M 145.112 449.638 L 162.276 379.634 L 258.341 398.374 L 277.596 452.064 L 162.369 452.064 L 174.404 398.441 L 229.485 411.405 L 229.485 435.529 L 186.537 435.529 L 188.746 419.434 L 198.784 421.112 L 199.774 425.849 L 219.549 425.849 L 219.549 419.501 L 182.408 411.246 L 175.804 442.384 L 262.69 442.384 L 251.13 407.708 L 170.5 392.088 L 156.276 452.346 L 145.112 449.638 Z " fill="rgb(230,207,164)"/></g></g></svg>